<svg width="494" height="371" viewBox="0 0 494 371" fill="none" xmlns="http://www.w3.org/2000/svg">
<path d="M395.011 200.703H350.626L357.363 169H363.704L358.305 194.363H396.349L395.011 200.703Z" fill="black"/>
<path d="M349.685 175.341H311.641L307.579 194.363H345.623L344.286 200.703H306.242C302.015 200.703 300.347 198.59 301.239 194.363L305.301 175.341C306.192 171.114 308.752 169 312.979 169H351.023L349.685 175.341ZM346.961 188.022H315.257L316.644 181.681H348.348L346.961 188.022Z" fill="black"/>
<path d="M255.913 169H300.297L298.96 175.341H279.938L274.538 200.703H268.198L273.597 175.341H254.575L255.913 169Z" fill="black"/>
<path d="M204.791 200.703H198.451L205.188 169H243.231C247.459 169 249.126 171.114 248.235 175.341L246.897 181.681C245.973 185.908 243.43 188.022 239.269 188.022H232.829L242.835 200.703H234.909L224.903 188.022H213.807L215.194 181.681H240.557L241.894 175.341H210.191L204.791 200.703Z" fill="black"/>
<path d="M154.066 200.703H147.725L153.125 175.341C154.016 171.114 156.576 169 160.803 169H192.506C196.733 169 198.401 171.114 197.509 175.341L192.11 200.703H185.769L188.444 188.022H163.082L164.469 181.681H189.831L191.169 175.341H159.466L154.066 200.703Z" fill="black"/>
<path d="M110.078 169L103.341 200.703H97L103.737 169H110.078ZM113.05 184.852L137.818 169H148.122L123.353 184.852L141.385 200.703H131.081L113.05 184.852Z" fill="black"/>
</svg>
