<svg width="494" height="371" viewBox="0 0 494 371" fill="none" xmlns="http://www.w3.org/2000/svg">
<path d="M471.931 229H427.547L434.284 197.297H440.624L435.225 222.66H473.269L471.931 229Z" fill="black"/>
<path d="M426.605 203.638H388.561L384.499 222.66H422.543L421.206 229H383.162C378.935 229 377.267 226.887 378.159 222.66L382.221 203.638C383.112 199.41 385.672 197.297 389.899 197.297H427.943L426.605 203.638ZM423.881 216.319H392.178L393.565 209.978H425.268L423.881 216.319Z" fill="black"/>
<path d="M332.833 197.297H377.218L375.88 203.638H356.858L351.459 229H345.118L350.517 203.638H331.495L332.833 197.297Z" fill="black"/>
<path d="M281.711 229H275.371L282.108 197.297H320.152C324.379 197.297 326.046 199.41 325.155 203.638L323.817 209.978C322.893 214.205 320.35 216.319 316.189 216.319H309.749L319.755 229H311.83L301.823 216.319H290.727L292.114 209.978H317.477L318.814 203.638H287.111L281.711 229Z" fill="black"/>
<path d="M230.986 229H224.646L230.045 203.638C230.937 199.41 233.496 197.297 237.723 197.297H269.426C273.654 197.297 275.321 199.41 274.43 203.638L269.03 229H262.689L265.364 216.319H240.002L241.389 209.978H266.751L268.089 203.638H236.386L230.986 229Z" fill="black"/>
<path d="M186.998 197.297L180.261 229H173.92L180.657 197.297H186.998ZM189.97 213.149L214.738 197.297H225.042L200.274 213.149L218.305 229H208.001L189.97 213.149Z" fill="black"/>
<path d="M54.7221 220.25C41.4995 223.283 21 228.59 21 228.59C21 228.59 49.7892 225.298 71.5831 221.519C83.0081 219.538 92.0881 218.149 93.8832 217.893C95.1523 217.711 100.767 216.805 102.042 216.805C104.943 216.805 96.6028 221.519 96.6028 221.519C96.6028 221.519 118.359 215.355 126.88 212.816C135.401 210.278 176.013 198.131 176.013 198.131C176.013 198.131 154.212 201.402 141.203 203.57C122.257 206.727 111.643 208.572 92.7954 212.272C77.8886 215.199 69.5289 216.853 54.7221 220.25Z" fill="black" stroke="black" stroke-width="0.362603"/>
<path d="M86.6312 194.505C60.9598 202.977 21.5439 218.074 21.5439 218.074L29.3399 216.261C29.3399 216.261 41.0615 213.088 48.5579 211.003C70.7272 204.837 82.9095 200.506 105.124 194.505C127.802 188.378 140.542 184.964 163.503 180C183.713 175.631 195.091 173.291 215.537 170.21C230.351 167.978 253.61 165.496 253.61 165.496L221.52 205.02C221.52 205.02 224.641 202.848 226.596 201.394C235.088 195.077 241.644 188.159 246.902 183.445C252.16 178.731 273.009 155.162 273.009 155.162C273.009 155.162 246.902 156.069 219.888 160.601C192.874 165.134 178.754 168.149 152.806 174.743C126.666 181.385 112.243 186.052 86.6312 194.505Z" fill="black" stroke="black" stroke-width="0.362603"/>
<path d="M188.586 150.144L194.817 141L125.934 152.76L110.393 154.861L99.8931 155.701L91.0728 156.121L99.8931 162.421L89.8823 189.625L147.004 171.985C147.004 171.985 109.623 177.025 108.363 173.665C107.103 170.305 109.133 164.521 109.133 164.521L184.316 148.56L180.545 163.503L188.586 150.144Z" fill="black" stroke="black" stroke-width="0.362603"/>
</svg>
